<svg xmlns="http://www.w3.org/2000/svg" xmlns:xlink="http://www.w3.org/1999/xlink" version="1.1" x="0px" y="0px" viewBox="0 0 60 75" enable-background="new 0 0 60 60" xml:space="preserve"><g><path d="M50.2349854,10.6099854h-7.1400146C43.0549927,9.6699829,42.9949951,8.75,42.9050293,7.9000244   C42.8549805,7.3900146,42.4249878,7,41.914978,7H18.085022c-0.5100098,0-0.9400024,0.3900146-0.9900513,0.9000244   c-0.0899658,0.8800049-0.1399536,1.789978-0.1799927,2.7099609H9.7650146c-0.5599976,0-1,0.4400024-1,1v1.1500244   c0,3.5,1.3699951,6.7999878,3.8800049,9.289978c1.6999512,1.6900024,3.7999878,2.8699951,6.1099854,3.4400024   c2.2000122,6.9200439,5.960022,11.2400513,10.25,11.8300171v2.5c-0.4799805,0.1600342-0.9500122,0.4100342-1.4000244,0.789978   c-0.6999512,0.5900269-1.1099854,1.4000244-1.2099609,2.2700195h7.2099609c-0.0899658-0.8699951-0.5-1.6799927-1.1999512-2.2700195   c-0.4500122-0.3799438-0.9200439-0.6399536-1.4000244-0.789978v-2.5c4.289978-0.5800171,8.0499878-4.9099731,10.25-11.8300171   c2.3099976-0.5799561,4.4099731-1.7599487,6.0999756-3.4400024c2.5100098-2.4799805,3.8800049-5.7799683,3.8800049-9.289978   v-1.1500244C51.2349854,11.0499878,50.7949829,10.6099854,50.2349854,10.6099854z M14.0549927,20.6300049   c-2.1300049-2.1099854-3.289978-4.8999634-3.289978-7.8699951v-0.1500244h6.0999756   c0,1.0200195,0.0400391,2.0400391,0.1000366,3.0400391c0.0199585,0.2799683,0.0499878,0.5499878,0.0799561,0.8200073   c0.0499878,0.7099609,0.1199951,1.4199829,0.210022,2.1199951c0.0499878,0.3699951,0.1099854,0.7299805,0.1599731,1.0899658   c0.1000366,0.5900269,0.2000122,1.1600342,0.3099976,1.7399902c0.0800171,0.4000244,0.1600342,0.7900391,0.25,1.1800537   c0.0500488,0.2099609,0.0800171,0.4199829,0.1300049,0.6099854C16.5949707,22.6600342,15.2150269,21.7900391,14.0549927,20.6300049   z M49.2349854,12.7600098c0,2.9799805-1.1599731,5.7700195-3.289978,7.8699951   c-1.1500244,1.1500244-2.5300293,2.0200195-4.039978,2.5800171C41.9550171,23,41.9949951,22.7900391,42.0349731,22.5800171   c0.0900269-0.3800049,0.1700439-0.7600098,0.25-1.1500244c0.1100464-0.5799561,0.2200317-1.1699829,0.3099976-1.7699585   c0.0500488-0.3500366,0.1100464-0.710022,0.1600342-1.0700073c0.0899658-0.7000122,0.1599731-1.4000244,0.210022-2.1199951   c0.0299683-0.2700195,0.0599976-0.5400391,0.0799561-0.8200073c0.0599976-1.0100098,0.1000366-2.0200195,0.1000366-3.0400391   h6.0899658V12.7600098z"/><path d="M34.2750244,44.8800049h-8.7400513c-1.9699707,0-3.5799561,1.6199951-3.5799561,3.6000366V52c0,0.5499878,0.4400024,1,1,1   h13.9099731c0.5499878,0,1-0.4500122,1-1v-3.5199585C37.8649902,46.5,36.2550049,44.8800049,34.2750244,44.8800049z"/></g></svg>