<svg xmlns="http://www.w3.org/2000/svg" xmlns:xlink="http://www.w3.org/1999/xlink" version="1.0" x="0px" y="0px" viewBox="0 0 100 125" enable-background="new 0 0 100 100" xml:space="preserve"><path d="M50.001,10C27.908,10,10,27.907,10,50C9.997,72.09,27.908,89.997,50.001,90C72.093,90,90.004,72.093,90,49.997  C90.004,27.904,72.089,10,50.001,10z M77.103,69.355l-5.604-4.075l-13.606,9.886l2.15,6.618c-3.17,1.002-6.543,1.549-10.044,1.549  c-3.5,0-6.87-0.547-10.04-1.546l2.151-6.621L28.5,65.28l-5.602,4.072c-3.858-5.391-6.16-11.963-6.218-19.082l6.947-0.004  l5.195-15.992l-5.599-4.069c4.03-5.446,9.666-9.619,16.224-11.807L41.593,25h16.813l2.145-6.602  c6.562,2.191,12.196,6.364,16.226,11.807l-5.6,4.069l5.195,15.992h6.951C83.265,57.39,80.962,63.962,77.103,69.355z"/><polygon points="41.534,38.503 36.342,54.495 49.946,64.378 63.55,54.495 58.354,38.503 "/></svg>