<svg xmlns="http://www.w3.org/2000/svg" xmlns:xlink="http://www.w3.org/1999/xlink" xml:space="preserve" version="1.1" style="shape-rendering:geometricPrecision;text-rendering:geometricPrecision;image-rendering:optimizeQuality;" viewBox="0 0 847 1058.75" x="0px" y="0px" fill-rule="evenodd" clip-rule="evenodd"><defs><style type="text/css">
   
    .fil0 {fill:black}
   
  </style></defs><g><path class="fil0" d="M621 423c0,110 -89,200 -198,200 -109,0 -197,-90 -197,-200 0,-110 88,-199 197,-199 109,0 198,89 198,199zm-441 -149c-15,25 -27,53 -34,83l-7 0c-36,0 -66,30 -66,66 0,37 30,67 66,67l7 0c7,29 19,57 34,83l-5 4c-26,26 -26,68 0,94 26,26 69,26 95,0l4 -4c25,15 53,27 83,34l0 6c0,37 30,67 66,67 37,0 67,-30 67,-67l0 -6c29,-7 57,-19 83,-34l4 4c26,26 68,26 94,0 26,-26 26,-68 0,-94l-4 -4c15,-26 27,-54 34,-83l6 0c37,0 67,-30 67,-67 0,-36 -30,-66 -67,-66l-6 0c-7,-30 -19,-58 -34,-83l4 -4c26,-26 26,-69 0,-95 -26,-26 -68,-26 -94,0l-4 5c-26,-15 -54,-27 -83,-34l0 -7c0,-36 -30,-66 -67,-66 -36,0 -66,30 -66,66l0 7c-30,7 -58,19 -83,34l-4 -5c-26,-26 -69,-26 -95,0 -26,26 -26,69 0,95l5 4z"/></g></svg>