<svg xmlns="http://www.w3.org/2000/svg" xmlns:xlink="http://www.w3.org/1999/xlink" version="1.1" x="0px" y="0px" viewBox="-346 256 100 125" enable-background="new -346 256 100 100" xml:space="preserve"><g><path d="M-330.618,271.125c-4.634,0-8.402,3.77-8.402,8.405s3.768,8.413,8.402,8.413c4.63,0,8.411-3.777,8.411-8.413   C-322.205,274.895-325.987,271.125-330.618,271.125z"/><path d="M-296.345,260.273c-4.634,0-8.403,3.769-8.403,8.404c0,4.636,3.769,8.413,8.403,8.413c4.632,0,8.411-3.776,8.411-8.413   C-287.932,264.042-291.713,260.273-296.345,260.273z"/><path d="M-261.722,276.209c-4.636,0-8.403,3.769-8.403,8.404s3.768,8.413,8.403,8.413c4.629,0,8.41-3.777,8.41-8.413   C-253.31,279.979-257.093,276.209-261.722,276.209z"/><path d="M-270.198,356h17.515v-29.409h6.562l-0.013-23.736c0-4.155-3.36-7.521-7.504-7.521h-15.655   c-4.146,0-7.508,3.366-7.508,7.521l-0.024,23.736h6.627V356z"/><path d="M-304.765,356h17.513v-39.68h6.556l-0.016-29.227c0-4.155-3.359-7.521-7.504-7.521h-15.657   c-4.144,0-7.505,3.366-7.505,7.521l-0.016,29.227h6.628V356z"/><path d="M-339.34,322.934V356h17.513v-33.066h6.557l0.001-25.002c0-4.155-3.368-7.523-7.523-7.523h-15.686   c-4.155,0-7.523,3.368-7.523,7.523l0.033,25.002H-339.34z"/></g></svg>